<mxfile host="app.diagrams.net" modified="2023-11-09T22:04:54.454Z" agent="Mozilla/5.0 (Windows NT 10.0; Win64; x64) AppleWebKit/537.36 (KHTML, like Gecko) Chrome/119.0.0.0 Safari/537.36" etag="lMI5hzfvCWuD2aJo0BEd" version="22.1.0" type="device">
  <diagram id="4gOyvl3nIHScLqiO7CJV" name="Страница — 1">
    <mxGraphModel dx="1050" dy="530" grid="1" gridSize="10" guides="1" tooltips="1" connect="1" arrows="1" fold="1" page="1" pageScale="1" pageWidth="827" pageHeight="1169" math="0" shadow="0">
      <root>
        <mxCell id="0" />
        <mxCell id="1" parent="0" />
        <mxCell id="ZMbrVNda88X1FUajWJM--12" value="Server" style="verticalAlign=top;align=left;spacingTop=8;spacingLeft=2;spacingRight=12;shape=cube;size=10;direction=south;fontStyle=4;html=1;whiteSpace=wrap;fillColor=#fff2cc;strokeColor=#d6b656;" vertex="1" parent="1">
          <mxGeometry x="490" y="50" width="260" height="230" as="geometry" />
        </mxCell>
        <mxCell id="ZMbrVNda88X1FUajWJM--15" value="Client" style="verticalAlign=top;align=left;spacingTop=8;spacingLeft=2;spacingRight=12;shape=cube;size=10;direction=south;fontStyle=4;html=1;whiteSpace=wrap;fillColor=#fff2cc;strokeColor=#d6b656;" vertex="1" parent="1">
          <mxGeometry x="30" y="60" width="260" height="150" as="geometry" />
        </mxCell>
        <mxCell id="ZMbrVNda88X1FUajWJM--21" value="DataBase" style="verticalAlign=top;align=left;spacingTop=8;spacingLeft=2;spacingRight=12;shape=cube;size=10;direction=south;fontStyle=4;html=1;whiteSpace=wrap;fillColor=#fff2cc;strokeColor=#d6b656;" vertex="1" parent="1">
          <mxGeometry x="250" y="330" width="210" height="190" as="geometry" />
        </mxCell>
        <mxCell id="ZMbrVNda88X1FUajWJM--22" value="User" style="shape=module;align=left;spacingLeft=20;align=center;verticalAlign=top;whiteSpace=wrap;html=1;fillColor=#dae8fc;strokeColor=#6c8ebf;" vertex="1" parent="1">
          <mxGeometry x="280" y="440" width="100" height="50" as="geometry" />
        </mxCell>
        <mxCell id="ZMbrVNda88X1FUajWJM--23" value="Advert" style="shape=module;align=left;spacingLeft=20;align=center;verticalAlign=top;whiteSpace=wrap;html=1;fillColor=#dae8fc;strokeColor=#6c8ebf;" vertex="1" parent="1">
          <mxGeometry x="280" y="370" width="100" height="50" as="geometry" />
        </mxCell>
        <mxCell id="ZMbrVNda88X1FUajWJM--24" value="AccountController" style="shape=module;align=left;spacingLeft=20;align=center;verticalAlign=top;whiteSpace=wrap;html=1;fillColor=#dae8fc;strokeColor=#6c8ebf;" vertex="1" parent="1">
          <mxGeometry x="500" y="160" width="140" height="50" as="geometry" />
        </mxCell>
        <mxCell id="ZMbrVNda88X1FUajWJM--25" value="AdvertController" style="shape=module;align=left;spacingLeft=20;align=center;verticalAlign=top;whiteSpace=wrap;html=1;fillColor=#dae8fc;strokeColor=#6c8ebf;" vertex="1" parent="1">
          <mxGeometry x="500" y="90" width="140" height="50" as="geometry" />
        </mxCell>
        <mxCell id="ZMbrVNda88X1FUajWJM--26" value="View" style="shape=module;align=left;spacingLeft=20;align=center;verticalAlign=top;whiteSpace=wrap;html=1;fillColor=#dae8fc;strokeColor=#6c8ebf;" vertex="1" parent="1">
          <mxGeometry x="110" y="90" width="140" height="50" as="geometry" />
        </mxCell>
        <mxCell id="ZMbrVNda88X1FUajWJM--27" value="" style="html=1;verticalAlign=bottom;endArrow=open;dashed=1;endSize=8;curved=0;rounded=0;exitX=0;exitY=0;exitDx=0;exitDy=15;exitPerimeter=0;entryX=1;entryY=0.25;entryDx=0;entryDy=0;" edge="1" parent="1" source="ZMbrVNda88X1FUajWJM--25" target="ZMbrVNda88X1FUajWJM--26">
          <mxGeometry relative="1" as="geometry">
            <mxPoint x="450" y="280" as="sourcePoint" />
            <mxPoint x="380" y="140" as="targetPoint" />
          </mxGeometry>
        </mxCell>
        <mxCell id="ZMbrVNda88X1FUajWJM--28" value="" style="html=1;verticalAlign=bottom;endArrow=open;dashed=1;endSize=8;curved=0;rounded=0;exitX=0;exitY=0;exitDx=0;exitDy=15;exitPerimeter=0;entryX=1;entryY=0.75;entryDx=0;entryDy=0;" edge="1" parent="1" source="ZMbrVNda88X1FUajWJM--24" target="ZMbrVNda88X1FUajWJM--26">
          <mxGeometry relative="1" as="geometry">
            <mxPoint x="510" y="115" as="sourcePoint" />
            <mxPoint x="260" y="113" as="targetPoint" />
          </mxGeometry>
        </mxCell>
        <mxCell id="ZMbrVNda88X1FUajWJM--29" value="" style="html=1;verticalAlign=bottom;endArrow=open;dashed=1;endSize=8;curved=0;rounded=0;exitX=0;exitY=0;exitDx=0;exitDy=35;exitPerimeter=0;" edge="1" parent="1" source="ZMbrVNda88X1FUajWJM--25" target="ZMbrVNda88X1FUajWJM--23">
          <mxGeometry relative="1" as="geometry">
            <mxPoint x="410" y="250" as="sourcePoint" />
            <mxPoint x="270" y="123" as="targetPoint" />
          </mxGeometry>
        </mxCell>
        <mxCell id="ZMbrVNda88X1FUajWJM--30" value="" style="html=1;verticalAlign=bottom;endArrow=open;dashed=1;endSize=8;curved=0;rounded=0;exitX=0;exitY=0;exitDx=0;exitDy=35;exitPerimeter=0;entryX=1;entryY=0.5;entryDx=0;entryDy=0;" edge="1" parent="1" source="ZMbrVNda88X1FUajWJM--24" target="ZMbrVNda88X1FUajWJM--22">
          <mxGeometry relative="1" as="geometry">
            <mxPoint x="530" y="135" as="sourcePoint" />
            <mxPoint x="280" y="133" as="targetPoint" />
          </mxGeometry>
        </mxCell>
        <mxCell id="ZMbrVNda88X1FUajWJM--31" value="" style="html=1;verticalAlign=bottom;endArrow=open;dashed=1;endSize=8;curved=0;rounded=0;exitX=0;exitY=0;exitDx=0;exitDy=15;exitPerimeter=0;entryX=0.75;entryY=1;entryDx=0;entryDy=0;" edge="1" parent="1" source="ZMbrVNda88X1FUajWJM--23" target="ZMbrVNda88X1FUajWJM--26">
          <mxGeometry relative="1" as="geometry">
            <mxPoint x="540" y="145" as="sourcePoint" />
            <mxPoint x="290" y="143" as="targetPoint" />
          </mxGeometry>
        </mxCell>
        <mxCell id="ZMbrVNda88X1FUajWJM--32" value="" style="html=1;verticalAlign=bottom;endArrow=open;dashed=1;endSize=8;curved=0;rounded=0;exitX=0;exitY=0;exitDx=0;exitDy=15;exitPerimeter=0;entryX=0.25;entryY=1;entryDx=0;entryDy=0;" edge="1" parent="1" source="ZMbrVNda88X1FUajWJM--22" target="ZMbrVNda88X1FUajWJM--26">
          <mxGeometry relative="1" as="geometry">
            <mxPoint x="550" y="155" as="sourcePoint" />
            <mxPoint x="300" y="153" as="targetPoint" />
          </mxGeometry>
        </mxCell>
      </root>
    </mxGraphModel>
  </diagram>
</mxfile>
